<svg xmlns="http://www.w3.org/2000/svg" xmlns:xlink="http://www.w3.org/1999/xlink" version="1.1" x="0px" y="0px" width="100px" height="100px" viewBox="0 0 100 100" enable-background="new 0 0 100 100" xml:space="preserve">
<g id="Captions">
</g>
<g id="Your_Icon">
	<path fill-rule="evenodd" clip-rule="evenodd" fill="#000000" d="M80.875,64.536V63.99v-0.552l-0.111-0.545l-0.105-0.546   l-0.113-0.438l-0.107-0.546l-0.219-0.438L80,60.379l-0.221-0.433l-0.326-0.551l-0.219-0.434l-0.326-0.438l-0.328-0.326   l-0.436-0.438l-0.33-0.326l-0.436-0.438l-0.439-0.326l-0.438-0.22l-0.436-0.332l-0.438-0.214l-0.545-0.219l-0.439-0.22l-0.545-0.22   l-0.545-0.106l-0.439-0.106l-0.545-0.113l-0.549-0.112h-0.545h-0.549h-0.545l-0.436,0.112l-0.549,0.113l-0.547,0.106l-0.545,0.106   l-0.439,0.22l-0.545,0.22l-0.438,0.219l-0.438,0.214l-0.545,0.332l-0.436,0.22l-0.439,0.326l-0.326,0.438l-0.438,0.326   l-0.326,0.438l-0.332,0.326l-0.326,0.438l-0.326,0.434l-0.221,0.551l-0.219,0.433l-0.219,0.546l-0.221,0.438l-0.105,0.546   l-0.221,0.438l-0.109,0.546v0.545l-0.109,0.552v0.546v0.545l0.109,0.546v0.438l0.109,0.546l0.221,0.545l0.105,0.546l0.221,0.438   l0.219,0.552l0.219,0.433l0.221,0.438l0.326,0.434l0.326,0.438l0.332,0.438l0.326,0.434l0.438,0.332l0.326,0.325l0.439,0.326   l0.436,0.332l0.545,0.326l0.438,0.22l0.438,0.22l0.545,0.219l0.439,0.107l0.545,0.219l0.547,0.107h0.549l0.436,0.112h0.545h0.549   h0.545l0.549-0.112h0.545l0.439-0.107l0.545-0.219l0.545-0.107l0.439-0.219l0.545-0.22l0.438-0.22l0.436-0.326l0.438-0.332   l0.439-0.326l0.436-0.325l0.33-0.332l0.436-0.434l0.328-0.438l0.326-0.438l0.219-0.434l0.326-0.438L80,68.692l0.219-0.552   l0.219-0.438l0.107-0.546l0.113-0.545l0.105-0.546l0.111-0.438v-0.546V64.536z M95.629,51.201V31.859l0.107-0.332l0.219-0.326   l0.113-0.438l0.107-0.326V30.11v-0.439v-0.326v-0.332l-0.107-0.433l-0.113-0.332l-0.105-0.326l-0.221-0.326l-0.219-0.332   l-0.219-0.213l-0.221-0.332l-0.326-0.22l-0.326-0.22l-0.328-0.106l-0.33-0.106l-0.105-0.113l-0.33-0.106h-0.328h-0.436h-0.33   h-0.436l-0.33,0.106h-0.326l-0.328,0.22l-0.328,0.106l-0.326,0.22l-0.33,0.22l-0.217,0.332l-0.219,0.213l-0.219,0.332l-0.221,0.326   l-0.105,0.326l-0.113,0.332l-0.107,0.433v0.332v0.107l-36.174,14.1h-5.574V27.157v-0.22l-0.109-0.326l-0.109-0.112l-0.109-0.22   l-0.217-0.213l-0.113-0.113L45.9,25.847h-0.217h-0.217h-7.98H23.605H23.17h-0.436l-0.33,0.106l-0.436,0.113l-0.439,0.106   l-0.324,0.22l-0.439,0.219l-0.326,0.22l-0.33,0.22l-0.328,0.326l-0.219,0.326l-0.326,0.326l-0.221,0.332L18.91,28.58l-7.324,13.329   l-9.182,3.611l-0.328,0.106l-0.326,0.22l-0.219,0.219l-0.326,0.22l-0.221,0.214l-0.328,0.332l-0.109,0.326l-0.221,0.326   l-0.105,0.332l-0.113,0.326L0,48.467v0.439v0.326v0.332v0.213l2.951,14.759h3.715V63.99l0.111-0.552v-0.545l0.107-0.546   l0.219-0.545l0.109-0.546l0.217-0.546l0.113-0.438l0.326-0.545l0.219-0.439l0.326-0.438l0.33-0.546l0.328-0.438l0.326-0.326   l0.33-0.438l0.436-0.326l0.438-0.438l0.438-0.326l0.436-0.326l0.438-0.22l0.547-0.326l0.438-0.22l0.547-0.219l0.545-0.113   l0.439-0.213l0.545-0.112l0.545-0.107l0.549-0.112h0.545h0.549h0.545h0.547l0.545,0.112l0.549,0.107l0.545,0.112l0.549,0.213   l0.545,0.113l0.436,0.219l0.549,0.22l0.436,0.326l0.436,0.22l0.549,0.326l0.436,0.326l0.33,0.332l0.436,0.433l0.328,0.438   l0.438,0.326l0.328,0.438l0.33,0.439l0.215,0.545l0.33,0.439l0.219,0.545l0.221,0.438l0.105,0.546l0.219,0.546l0.107,0.545   l0.113,0.546l0.105,0.545v0.552v0.546h33.117V63.99v-0.552l0.109-0.545l0.109-0.546l0.109-0.545l0.109-0.546l0.221-0.546   l0.215-0.438l0.221-0.545l0.328-0.439l0.217-0.438l0.328-0.546l0.326-0.438l0.439-0.326l0.326-0.438l0.439-0.433l0.326-0.332   l0.438-0.326l0.439-0.326l0.539-0.22l0.441-0.326l0.549-0.22l0.436-0.219l0.549-0.113l0.545-0.213l0.547-0.112l0.545-0.107   l0.545-0.112h0.549h0.545h0.549h0.547l0.545,0.112l0.545,0.107l0.549,0.112l0.436,0.213l0.545,0.113l0.549,0.219l0.436,0.22   l0.547,0.326l0.438,0.22l0.439,0.326l0.436,0.326l0.436,0.438l0.439,0.326l0.326,0.438l0.328,0.326l0.33,0.438L80,58.85   l0.328,0.438l0.217,0.439l0.219,0.545l0.221,0.438l0.219,0.546l0.107,0.546l0.219,0.545v0.546l0.113,0.545l0.105,0.552v0.546h3.17   h0.328l0.326-0.113l0.33-0.106l0.217-0.112l0.332-0.107l0.217-0.219l0.215-0.22l0.221-0.22l0.219-0.326l0.109-0.219l0.109-0.326   l0.111-0.326v-0.22v-0.219V43.552l4.697-10.056v15.629v0.546v0.658l-0.109,0.546l-0.109,0.545l-0.107,0.546l-0.219,0.545   l-0.109,0.546l-0.219,0.438l-0.217,0.546l-0.332,0.545l-0.217,0.445l-0.109,0.32l-0.109,0.444l-0.109,0.32v0.438v0.439v0.438v0.326   l0.109,0.438l0.109,0.433l0.219,0.332l0.107,0.326l0.219,0.439l0.219,0.326l0.33,0.219l0.328,0.332l0.326,0.214l0.326,0.219   l0.33,0.22l0.328,0.22l0.436,0.106l0.438,0.106l0.438,0.113h0.326h0.439l0.439-0.113h0.436l0.328-0.106l0.436-0.106l0.33-0.22   l0.326-0.22l0.438-0.219l0.221-0.214l0.326-0.332l0.326-0.326l0.219-0.332l0.219-0.326l0.109-0.438l0.217-0.326l0.113-0.438   L100,57.759v-0.439h-1.201l-0.109,0.326l-0.109,0.332l-0.111,0.22l-0.219,0.326l-0.107,0.22l-0.219,0.326l-0.326,0.219   l-0.219,0.107l-0.33,0.219l-0.328,0.113h-0.326l-0.219,0.112h-0.439l-0.217-0.112h-0.328l-0.326-0.113l-0.33-0.219l-0.217-0.107   l-0.328-0.219v-0.107l-0.221-0.219l-0.215-0.22l-0.221-0.326l-0.109-0.332l-0.109-0.326v-0.326v-0.332v-0.326l0.109-0.326   l0.109-0.219l0.107-0.326l0.219-0.332l0.109-0.214l0.33-0.22l0.219-0.219l0.217-0.22l0.33-0.106l0.326-0.112h0.328l0.109-0.107   h0.107l0.219-0.112h0.113l0.107-0.22l0.109-0.106l0.109-0.22v-0.219v-0.107V52.95v-0.113l-0.109-0.106v-0.106l-0.436-0.552   l-0.113-0.214l-0.107-0.219v-0.22V51.201z M89.182,32.624L61.311,43.552h22.732L89.182,32.624z M26.885,64.536V63.99l-0.107-0.552   v-0.545l-0.113-0.546l-0.215-0.438l-0.109-0.546l-0.221-0.438L25.9,60.379l-0.217-0.433l-0.219-0.551l-0.33-0.434l-0.326-0.438   l-0.326-0.326l-0.328-0.438l-0.436-0.326l-0.439-0.438l-0.326-0.326l-0.439-0.22l-0.545-0.332l-0.439-0.214l-0.438-0.219   l-0.545-0.22l-0.438-0.22l-0.547-0.106l-0.547-0.106l-0.545-0.113l-0.545-0.112h-0.439h-0.545h-0.547l-0.547,0.112l-0.547,0.113   l-0.547,0.106l-0.438,0.106l-0.547,0.22l-0.434,0.22l-0.549,0.219l-0.436,0.214l-0.439,0.332l-0.438,0.22l-0.436,0.326   l-0.438,0.438l-0.328,0.326l-0.436,0.438l-0.33,0.326L9.18,58.962l-0.219,0.434l-0.326,0.551l-0.221,0.433l-0.219,0.546   l-0.217,0.438l-0.109,0.546L7.76,62.348L7.65,62.894l-0.107,0.545v0.552v0.546v0.545v0.546l0.107,0.438l0.109,0.546l0.109,0.545   l0.109,0.546l0.217,0.438l0.219,0.552l0.221,0.433l0.326,0.438l0.219,0.434l0.328,0.438l0.33,0.438l0.436,0.434l0.328,0.332   l0.438,0.325l0.436,0.326l0.438,0.332l0.439,0.326l0.436,0.22l0.549,0.22l0.434,0.219l0.547,0.107l0.438,0.219l0.547,0.107h0.547   l0.547,0.112h0.547h0.545h0.439l0.545-0.112h0.545l0.547-0.107l0.547-0.219l0.438-0.107l0.545-0.219l0.438-0.22l0.439-0.22   l0.545-0.326l0.439-0.332l0.326-0.326l0.439-0.325l0.436-0.332l0.328-0.434l0.326-0.438l0.326-0.438l0.33-0.434l0.219-0.438   l0.217-0.433l0.219-0.552l0.221-0.438l0.109-0.546l0.215-0.545l0.113-0.546v-0.438l0.107-0.546V64.536z M21.969,64.536v-0.439   v-0.438l-0.113-0.326l-0.105-0.438l-0.109-0.326l-0.221-0.438l-0.215-0.326l-0.221-0.326l-0.328-0.332l-0.33-0.22L20,60.604   l-0.326-0.226l-0.328-0.219l-0.33-0.106l-0.438-0.214l-0.434-0.112h-0.332l-0.436-0.113h-0.436l-0.33,0.113h-0.436l-0.439,0.112   l-0.326,0.214l-0.438,0.106l-0.326,0.219l-0.33,0.226l-0.328,0.32l-0.326,0.22l-0.219,0.332l-0.326,0.326l-0.113,0.326   l-0.217,0.438l-0.219,0.326l-0.109,0.438l-0.107,0.326v0.438v0.439v0.433v0.332l0.107,0.433l0.109,0.438l0.219,0.326l0.217,0.332   l0.113,0.434l0.326,0.332l0.219,0.219l0.326,0.326l0.328,0.22l0.33,0.22l0.326,0.219l0.438,0.214l0.326,0.112l0.439,0.106   l0.436,0.113h0.33h0.436h0.436l0.332-0.113l0.434-0.106l0.438-0.112l0.33-0.214l0.328-0.219L20,68.36l0.326-0.22l0.33-0.326   l0.328-0.219l0.221-0.332l0.215-0.434l0.221-0.332l0.109-0.326l0.105-0.438l0.113-0.433v-0.332V64.536z M22.953,29.013h-0.219   l-0.33,0.113h-0.328l-0.326,0.219l-0.221,0.107l-0.219,0.219l-0.326,0.22l-0.109,0.22l-0.219,0.213v0.113l-6.34,11.473h19.02   V29.013H22.953z M76.066,64.536v-0.439l-0.111-0.438v-0.326l-0.219-0.438l-0.107-0.326l-0.219-0.438l-0.109-0.326l-0.33-0.326   l-0.215-0.332l-0.33-0.22l-0.326-0.32l-0.328-0.226l-0.33-0.219l-0.436-0.106l-0.328-0.214l-0.438-0.112h-0.436l-0.328-0.113   h-0.436l-0.439,0.113h-0.439l-0.326,0.112l-0.438,0.214l-0.326,0.106l-0.326,0.219l-0.439,0.226l-0.326,0.32l-0.219,0.22   l-0.33,0.332l-0.219,0.326l-0.217,0.326l-0.219,0.438l-0.109,0.326l-0.109,0.438l-0.111,0.326v0.438v0.439v0.433v0.332l0.111,0.433   l0.109,0.438l0.109,0.326l0.219,0.332l0.217,0.434l0.219,0.332l0.33,0.219l0.219,0.326l0.326,0.22l0.439,0.22l0.326,0.219   l0.326,0.214l0.438,0.112l0.326,0.106l0.439,0.113h0.439h0.436h0.328l0.436-0.113l0.438-0.106l0.328-0.112l0.436-0.214l0.33-0.219   l0.328-0.22l0.326-0.22l0.33-0.326l0.215-0.219l0.33-0.332l0.109-0.434l0.219-0.332l0.107-0.326l0.219-0.438v-0.433l0.111-0.332   V64.536z"/>
</g>
</svg>